<svg width="800" height="800" viewBox="0 0 800 800" fill="none" xmlns="http://www.w3.org/2000/svg">
<path d="M683.333 233.333H116.667C107.826 233.333 99.3476 229.821 93.0964 223.57C86.8451 217.319 83.3333 208.841 83.3333 200C83.3333 191.159 86.8451 182.681 93.0964 176.43C99.3476 170.179 107.826 166.667 116.667 166.667H683.333C692.174 166.667 700.652 170.179 706.904 176.43C713.155 182.681 716.667 191.159 716.667 200C716.667 208.841 713.155 217.319 706.904 223.57C700.652 229.821 692.174 233.333 683.333 233.333Z" fill="#20C997"/>
<path d="M683.333 433.333H116.667C107.826 433.333 99.3476 429.821 93.0964 423.57C86.8451 417.319 83.3333 408.841 83.3333 400C83.3333 391.159 86.8451 382.681 93.0964 376.43C99.3476 370.179 107.826 366.667 116.667 366.667H683.333C692.174 366.667 700.652 370.179 706.904 376.43C713.155 382.681 716.667 391.159 716.667 400C716.667 408.841 713.155 417.319 706.904 423.57C700.652 429.821 692.174 433.333 683.333 433.333Z" fill="#20C997"/>
<path d="M683.333 633.333H116.667C107.826 633.333 99.3476 629.821 93.0964 623.57C86.8451 617.319 83.3333 608.841 83.3333 600C83.3333 591.159 86.8451 582.681 93.0964 576.43C99.3476 570.179 107.826 566.667 116.667 566.667H683.333C692.174 566.667 700.652 570.179 706.904 576.43C713.155 582.681 716.667 591.159 716.667 600C716.667 608.841 713.155 617.319 706.904 623.57C700.652 629.821 692.174 633.333 683.333 633.333Z" fill="#20C997"/>
</svg>
